<?xml version="1.0" encoding="utf-8"?>
<!-- Generator: Adobe Illustrator 16.0.3, SVG Export Plug-In . SVG Version: 6.00 Build 0)  -->
<!DOCTYPE svg PUBLIC "-//W3C//DTD SVG 1.1//EN" "http://www.w3.org/Graphics/SVG/1.1/DTD/svg11.dtd">
<svg version="1.1" id="Layer_1" xmlns="http://www.w3.org/2000/svg" xmlns:xlink="http://www.w3.org/1999/xlink" x="0px" y="0px"
	 width="587.605px" height="106.004px" viewBox="13.681 343.906 587.605 106.004"
	 enable-background="new 13.681 343.906 587.605 106.004" xml:space="preserve">
<g>
	<g>
		<path fill="#AAAAAA" d="M85.903,390.204H71.084l-2.085,5.286l-8.423,20.86l-8.307-20.814l-2.118-5.332H35.25
			c9.652-10.02,15.504-19.589,19.004-27.436c0.138-0.285,0.253-0.562,0.373-0.829c0.092-0.193,0.175-0.414,0.249-0.598
			c0.415-0.93,0.783-1.833,1.091-2.689c0.585-1.52,1.064-2.957,1.479-4.274c0.23-0.746,0.428-1.446,0.621-2.109v-0.019
			c1.267-4.513,1.543-7.487,1.575-8.224c0-0.018,0.023-0.018,0.023-0.046v40.735h-0.023v2.652c-1.46,0.405-2.51,1.722-2.51,3.325
			c0,1.906,1.538,3.462,3.444,3.462c1.925,0,3.481-1.556,3.481-3.462c0-1.603-1.073-2.938-2.546-3.325v-43.46
			c0.037,0.479,0.253,3.537,1.579,8.39c0.193,0.654,0.387,1.354,0.617,2.081c0.405,1.335,0.893,2.791,1.501,4.329
			c0.332,0.856,0.677,1.741,1.069,2.652c0.083,0.184,0.166,0.387,0.248,0.58c0.12,0.295,0.258,0.59,0.387,0.875
			c3.509,7.8,9.325,17.332,18.917,27.288C85.848,390.148,85.861,390.167,85.903,390.204"/>
		<path fill="#AAAAAA" d="M88.638,394.808h-4.163l0,0h-9.27h-0.294h-1.202l-2.455,6.733l-10.66,26.569l-10.397-26.063l-2.634-7.239
			H46.25h-0.188h-9.284l0,0l-4.513-0.046c0,0,4.449,1.621,9.579,12.912l18.612,42.236l0.12-0.359l17.582-38.976
			C83.803,396.623,88.638,394.808,88.638,394.808"/>
	</g>
	<g>
		<path fill="#AAAAAA" d="M25.658,391.271c0.244-1.565,0.594-3.085,1.06-4.586c3.025-10.278,10.65-18.41,20.192-22.417
			c0.258-0.111,0.534-0.221,0.801-0.332l2.892-7.229c-0.074,0.019-0.129,0.046-0.208,0.064
			c-14.363,3.601-25.995,14.791-29.839,29.637c-0.479,1.87-0.815,3.776-1.036,5.701l-5.839,4.338l5.738,3.876
			c0.078,0.895,0.175,1.787,0.322,2.662c2.413,16.016,13.897,28.762,28.969,33.201l-3.435-7.782
			c-9.96-4.862-17.485-14.376-19.483-25.575c-0.378-2.045-0.557-4.08-0.557-6.125c0-0.607,0.014-1.206,0.055-1.796
			C25.344,393.685,25.469,392.469,25.658,391.271"/>
		<path fill="#AAAAAA" d="M107.325,396.448l-5.94-4.412c-0.211-1.896-0.548-3.785-1.022-5.645
			c-1.824-7.11-5.457-13.382-10.342-18.373c-0.857-0.894-1.746-1.723-2.671-2.524c-4.752-4.089-10.412-7.073-16.555-8.648
			c-0.06-0.019-0.125-0.037-0.184-0.055l2.924,7.276c0.267,0.11,0.543,0.221,0.806,0.35c1.819,0.783,3.541,1.713,5.19,2.782
			c0.861,0.543,1.657,1.133,2.454,1.731c5.696,4.43,10.076,10.555,12.207,17.757c0.359,1.225,0.654,2.459,0.875,3.72
			c0.285,1.474,0.451,2.975,0.52,4.503c0.042,0.59,0.06,1.188,0.06,1.796c0,2.045-0.188,4.108-0.543,6.125
			c-1.667,9.265-6.88,17.25-14.174,22.48c-0.801,0.571-1.598,1.114-2.431,1.594c-0.856,0.524-1.731,0.985-2.62,1.409l-3.523,7.827
			c5.01-1.501,9.611-3.913,13.621-7.045c0.985-0.782,1.906-1.593,2.823-2.449c6.488-6.125,10.987-14.35,12.373-23.65
			c0.129-0.848,0.226-1.723,0.304-2.598L107.325,396.448z"/>
	</g>
	<path fill="#AAAAAA" d="M505.423,388.389c-2.551-2.546-5.613-3.799-9.15-3.799c-3.582,0-6.607,1.253-9.107,3.799
		c-2.501,2.546-3.8,5.567-3.8,9.108c0,3.583,1.299,6.599,3.8,9.146c2.5,2.505,5.525,3.762,9.107,3.762c3.537,0,6.6-1.257,9.15-3.762
		c2.505-2.547,3.799-5.563,3.799-9.146C509.222,393.957,507.928,390.935,505.423,388.389z M505.423,388.389
		c-2.551-2.546-5.613-3.799-9.15-3.799c-3.582,0-6.607,1.253-9.107,3.799c-2.501,2.546-3.8,5.567-3.8,9.108
		c0,3.583,1.299,6.599,3.8,9.146c2.5,2.505,5.525,3.762,9.107,3.762c3.537,0,6.6-1.257,9.15-3.762
		c2.505-2.547,3.799-5.563,3.799-9.146C509.222,393.957,507.928,390.935,505.423,388.389z M505.423,388.389
		c-2.551-2.546-5.613-3.799-9.15-3.799c-3.582,0-6.607,1.253-9.107,3.799c-2.501,2.546-3.8,5.567-3.8,9.108
		c0,3.583,1.299,6.599,3.8,9.146c2.5,2.505,5.525,3.762,9.107,3.762c3.537,0,6.6-1.257,9.15-3.762
		c2.505-2.547,3.799-5.563,3.799-9.146C509.222,393.957,507.928,390.935,505.423,388.389z M505.423,388.389
		c-2.551-2.546-5.613-3.799-9.15-3.799c-3.582,0-6.607,1.253-9.107,3.799c-2.501,2.546-3.8,5.567-3.8,9.108
		c0,3.583,1.299,6.599,3.8,9.146c2.5,2.505,5.525,3.762,9.107,3.762c3.537,0,6.6-1.257,9.15-3.762
		c2.505-2.547,3.799-5.563,3.799-9.146C509.222,393.957,507.928,390.935,505.423,388.389z M505.423,388.389
		c-2.551-2.546-5.613-3.799-9.15-3.799c-3.582,0-6.607,1.253-9.107,3.799c-2.501,2.546-3.8,5.567-3.8,9.108
		c0,3.583,1.299,6.599,3.8,9.146c2.5,2.505,5.525,3.762,9.107,3.762c3.537,0,6.6-1.257,9.15-3.762
		c2.505-2.547,3.799-5.563,3.799-9.146C509.222,393.957,507.928,390.935,505.423,388.389z M505.423,388.389
		c-2.551-2.546-5.613-3.799-9.15-3.799c-3.582,0-6.607,1.253-9.107,3.799c-2.501,2.546-3.8,5.567-3.8,9.108
		c0,3.583,1.299,6.599,3.8,9.146c2.5,2.505,5.525,3.762,9.107,3.762c3.537,0,6.6-1.257,9.15-3.762
		c2.505-2.547,3.799-5.563,3.799-9.146C509.222,393.957,507.928,390.935,505.423,388.389z M145.499,366.028v62.93h455.787v-62.93
		H145.499z M400.672,426.245H148.473v-57.455h252.199V426.245z M427.344,418.818h-8.547v-42.6h8.547V418.818z M463.081,417.391
		c-2.634,1.123-5.393,1.686-8.33,1.686c-5.958,0-11.005-2.113-15.232-6.305c-4.19-4.227-6.305-9.278-6.305-15.191
		c0-5.954,2.114-11.006,6.305-15.233c4.228-4.231,9.274-6.345,15.232-6.345l-0.046,0.083c2.938,0,5.742,0.566,8.335,1.685
		c2.634,1.165,4.918,2.676,6.902,4.619l-6.083,6.088c-2.551-2.546-5.571-3.799-9.108-3.799c-3.583,0-6.604,1.252-9.108,3.799
		s-3.795,5.563-3.795,9.104c0,3.583,1.29,6.608,3.795,9.104c2.505,2.552,5.525,3.805,9.108,3.805s6.604-1.253,9.15-3.805
		l6.087,6.088C467.999,414.72,465.711,416.271,463.081,417.391z M511.511,412.771c-4.232,4.191-9.325,6.305-15.238,6.305
		c-5.916,0-11.01-2.113-15.19-6.305c-4.19-4.227-6.305-9.278-6.305-15.191c0-5.954,2.114-11.006,6.305-15.233
		c4.181-4.231,9.274-6.345,15.19-6.345c5.913,0,11.006,2.114,15.238,6.345c4.228,4.227,6.346,9.279,6.346,15.233
		C517.856,403.493,515.738,408.545,511.511,412.771z M557.78,419.592l-25.599-24.341v23.568h-8.501v-43.424l25.553,24.346v-23.522
		h8.547V419.592z M586.478,415.235c-2.501,2.546-5.563,3.841-9.104,3.841c-3.583,0-6.608-1.295-9.15-3.841
		c-2.546-2.505-3.799-5.567-3.799-9.149h8.634c0,2.417,1.897,4.318,4.27,4.318v-0.045c2.334,0,4.313-1.943,4.313-4.32
		c0-1.809-0.728-2.979-2.195-3.49c-3.063-1.17-2.289-0.865-5.311-1.902c-3.149-1.123-6.041-3.236-7.984-5.912
		c-1.17-1.593-1.768-3.541-1.768-5.913c0-3.541,1.294-6.562,3.794-9.113c2.551-2.547,5.613-3.794,9.15-3.794
		c3.541,0,6.607,1.248,9.149,3.794c2.551,2.551,3.799,5.572,3.799,9.113h-8.588c0-2.293-1.943-4.273-4.273-4.273
		c-2.376,0-4.319,1.98-4.319,4.315c0,1.552,0.607,2.717,1.86,3.495c2.505,1.639,2.247,1.335,5.264,2.206
		c3.283,0.944,6.258,3.016,8.288,5.604c1.166,1.557,1.814,3.541,1.814,5.918C590.322,409.668,589.028,412.73,586.478,415.235z
		 M496.272,384.59c-3.582,0-6.607,1.253-9.107,3.799c-2.501,2.546-3.8,5.567-3.8,9.108c0,3.583,1.299,6.599,3.8,9.146
		c2.5,2.505,5.525,3.762,9.107,3.762c3.537,0,6.6-1.257,9.15-3.762c2.505-2.547,3.799-5.563,3.799-9.146
		c0-3.541-1.294-6.562-3.799-9.108C502.872,385.843,499.81,384.59,496.272,384.59z M505.423,388.389
		c-2.551-2.546-5.613-3.799-9.15-3.799c-3.582,0-6.607,1.253-9.107,3.799c-2.501,2.546-3.8,5.567-3.8,9.108
		c0,3.583,1.299,6.599,3.8,9.146c2.5,2.505,5.525,3.762,9.107,3.762c3.537,0,6.6-1.257,9.15-3.762
		c2.505-2.547,3.799-5.563,3.799-9.146C509.222,393.957,507.928,390.935,505.423,388.389z M505.423,388.389
		c-2.551-2.546-5.613-3.799-9.15-3.799c-3.582,0-6.607,1.253-9.107,3.799c-2.501,2.546-3.8,5.567-3.8,9.108
		c0,3.583,1.299,6.599,3.8,9.146c2.5,2.505,5.525,3.762,9.107,3.762c3.537,0,6.6-1.257,9.15-3.762
		c2.505-2.547,3.799-5.563,3.799-9.146C509.222,393.957,507.928,390.935,505.423,388.389z M505.423,388.389
		c-2.551-2.546-5.613-3.799-9.15-3.799c-3.582,0-6.607,1.253-9.107,3.799c-2.501,2.546-3.8,5.567-3.8,9.108
		c0,3.583,1.299,6.599,3.8,9.146c2.5,2.505,5.525,3.762,9.107,3.762c3.537,0,6.6-1.257,9.15-3.762
		c2.505-2.547,3.799-5.563,3.799-9.146C509.222,393.957,507.928,390.935,505.423,388.389z M505.423,388.389
		c-2.551-2.546-5.613-3.799-9.15-3.799c-3.582,0-6.607,1.253-9.107,3.799c-2.501,2.546-3.8,5.567-3.8,9.108
		c0,3.583,1.299,6.599,3.8,9.146c2.5,2.505,5.525,3.762,9.107,3.762c3.537,0,6.6-1.257,9.15-3.762
		c2.505-2.547,3.799-5.563,3.799-9.146C509.222,393.957,507.928,390.935,505.423,388.389z M505.423,388.389
		c-2.551-2.546-5.613-3.799-9.15-3.799c-3.582,0-6.607,1.253-9.107,3.799c-2.501,2.546-3.8,5.567-3.8,9.108
		c0,3.583,1.299,6.599,3.8,9.146c2.5,2.505,5.525,3.762,9.107,3.762c3.537,0,6.6-1.257,9.15-3.762
		c2.505-2.547,3.799-5.563,3.799-9.146C509.222,393.957,507.928,390.935,505.423,388.389z M505.423,388.389
		c-2.551-2.546-5.613-3.799-9.15-3.799c-3.582,0-6.607,1.253-9.107,3.799c-2.501,2.546-3.8,5.567-3.8,9.108
		c0,3.583,1.299,6.599,3.8,9.146c2.5,2.505,5.525,3.762,9.107,3.762c3.537,0,6.6-1.257,9.15-3.762
		c2.505-2.547,3.799-5.563,3.799-9.146C509.222,393.957,507.928,390.935,505.423,388.389z"/>
	<g>
		<polygon fill="#AAAAAA" points="195.825,375.827 176.619,419.205 157.499,375.827 166.515,375.827 176.619,399.049 
			186.717,375.827 		"/>
		<polygon fill="#AAAAAA" points="210.243,384.719 210.243,393.266 223.017,393.266 223.017,401.771 210.243,401.771 
			210.243,410.267 227.244,410.267 227.244,418.818 201.697,418.818 201.697,376.218 227.244,376.218 227.244,384.719 		"/>
		<path fill="#AAAAAA" d="M269.627,412.73c-1.98,1.943-4.269,3.5-6.898,4.619c-2.592,1.164-5.397,1.727-8.335,1.727
			c-5.954,0-11.005-2.155-15.237-6.346c-4.186-4.186-6.299-9.283-6.299-15.191c0-5.913,2.113-11.01,6.299-15.237
			c4.232-4.228,9.283-6.341,15.237-6.341l-0.045,0.124c2.983,0,5.742,0.566,8.38,1.685c2.588,1.124,4.872,2.676,6.861,4.577
			l-6.042,6.083c-2.592-2.547-5.618-3.799-9.154-3.799c-3.583,0-6.604,1.252-9.108,3.799c-2.5,2.551-3.794,5.567-3.794,9.149
			c0,3.541,1.294,6.608,3.794,9.104c2.505,2.506,5.526,3.763,9.108,3.763s6.604-1.257,9.154-3.804L269.627,412.73z"/>
		<polygon fill="#AAAAAA" points="304.808,376.218 304.808,384.719 294.143,384.719 294.143,418.818 285.601,418.818 
			285.601,384.719 274.941,384.719 274.941,376.218 		"/>
		<polygon fill="#AAAAAA" points="340.505,376.218 340.505,384.719 329.84,384.719 329.84,418.818 321.293,418.818 321.293,384.719 
			310.633,384.719 310.633,376.218 		"/>
		<path fill="#AAAAAA" d="M382.584,382.301c-4.228-4.227-9.32-6.34-15.232-6.34c-5.918,0-11.006,2.113-15.196,6.34
			c-4.186,4.228-6.3,9.325-6.3,15.238c0,5.908,2.114,11.006,6.3,15.191c4.19,4.19,9.278,6.346,15.196,6.346
			c5.912,0,11.005-2.155,15.232-6.346c4.231-4.186,6.346-9.283,6.346-15.191C388.93,391.626,386.815,386.529,382.584,382.301z
			 M376.455,406.602c-2.501,2.505-5.567,3.803-9.104,3.803c-3.583,0-6.604-1.298-9.108-3.803c-2.506-2.506-3.8-5.563-3.8-9.104
			c0-3.541,1.294-6.604,3.8-9.154c2.505-2.5,5.525-3.794,9.108-3.794c3.536,0,6.603,1.294,9.104,3.794
			c2.546,2.551,3.845,5.614,3.845,9.154C380.3,401.039,379.001,404.096,376.455,406.602z"/>
	</g>
	<polygon fill="#AAAAAA" points="148.473,368.791 148.473,426.245 400.239,426.245 400.239,428.958 145.499,428.958 
		145.499,366.028 400.239,366.028 400.239,368.791 	"/>
</g>
</svg>
