<?xml version="1.0" encoding="utf-8"?>
<!-- Generator: Adobe Illustrator 16.0.3, SVG Export Plug-In . SVG Version: 6.00 Build 0)  -->
<!DOCTYPE svg PUBLIC "-//W3C//DTD SVG 1.1//EN" "http://www.w3.org/Graphics/SVG/1.1/DTD/svg11.dtd">
<svg version="1.1" id="Layer_1" xmlns="http://www.w3.org/2000/svg" xmlns:xlink="http://www.w3.org/1999/xlink" x="0px" y="0px"
	 width="466.64px" height="528.229px" viewBox="72.68 136.411 466.64 528.229"
	 enable-background="new 72.68 136.411 466.64 528.229" xml:space="preserve">
<g>
	<g>
		<path d="M432.572,367.116h-73.843l-10.392,26.342l-41.972,103.947l-41.395-103.719l-10.554-26.571h-74.256
			c48.097-49.931,77.261-97.615,94.701-136.716c0.689-1.422,1.261-2.798,1.859-4.131c0.458-0.963,0.871-2.065,1.238-2.981
			c2.065-4.636,3.902-9.134,5.439-13.4c2.915-7.573,5.301-14.732,7.366-21.295c1.147-3.718,2.133-7.205,3.097-10.511v-0.092
			c6.312-22.486,7.687-37.311,7.848-40.98c0-0.091,0.116-0.091,0.116-0.231v202.986h-0.116v13.217
			c-7.275,2.018-12.505,8.581-12.505,16.568c0,9.5,7.663,17.255,17.162,17.255c9.592,0,17.348-7.756,17.348-17.255
			c0-7.987-5.346-14.642-12.688-16.568V136.411c0.184,2.387,1.262,17.623,7.869,41.808c0.963,3.26,1.929,6.747,3.076,10.372
			c2.018,6.654,4.45,13.905,7.479,21.57c1.654,4.267,3.373,8.673,5.324,13.217c0.413,0.917,0.826,1.927,1.238,2.891
			c0.597,1.469,1.285,2.938,1.93,4.362c17.483,38.871,46.465,86.368,94.264,135.98C432.298,366.839,432.365,366.93,432.572,367.116"
			/>
		<path d="M446.202,390.061H425.46l0,0h-46.19h-1.469h-5.989L359.58,423.61L306.459,556.01l-51.813-129.876l-13.125-36.073h-6.542
			h-0.939h-46.261l0,0l-22.487-0.229c0,0,22.168,8.076,47.73,64.34L305.77,664.64l0.597-1.791l87.61-194.218
			C422.109,399.103,446.202,390.061,446.202,390.061"/>
	</g>
	<g>
		<path fill="#F68F3B" d="M132.365,372.437c1.215-7.801,2.958-15.374,5.278-22.853c15.076-51.217,53.073-91.74,100.619-111.704
			c1.286-0.551,2.662-1.102,3.992-1.654l14.412-36.025c-0.367,0.094-0.644,0.229-1.034,0.322
			c-71.57,17.944-129.534,73.704-148.693,147.685c-2.385,9.316-4.06,18.815-5.162,28.407L72.68,398.23l28.592,19.32
			c0.389,4.452,0.871,8.905,1.606,13.263c12.024,79.809,69.251,143.324,144.354,165.444l-17.117-38.78
			c-49.634-24.229-87.128-71.638-97.085-127.444c-1.883-10.188-2.777-20.329-2.777-30.518c0-3.029,0.068-6.013,0.274-8.95
			C130.803,384.461,131.423,378.404,132.365,372.437"/>
		<path fill="#F68F3B" d="M539.32,398.23l-29.603-21.984c-1.055-9.452-2.729-18.861-5.094-28.13
			c-9.087-35.429-27.19-66.683-51.536-91.556c-4.27-4.453-8.699-8.583-13.309-12.576c-23.683-20.377-51.883-35.247-82.494-43.094
			c-0.299-0.092-0.621-0.184-0.917-0.276l14.57,36.256c1.331,0.551,2.707,1.102,4.017,1.744c9.063,3.901,17.644,8.537,25.861,13.861
			c4.29,2.707,8.259,5.645,12.229,8.626c28.385,22.076,50.207,52.595,60.829,88.484c1.791,6.103,3.26,12.253,4.362,18.539
			c1.421,7.343,2.248,14.825,2.591,22.442c0.207,2.938,0.299,5.922,0.299,8.951c0,10.188-0.938,20.469-2.706,30.518
			c-8.307,46.168-34.283,85.958-70.631,112.025c-3.992,2.846-7.961,5.553-12.115,7.939c-4.267,2.616-8.628,4.91-13.057,7.021
			l-17.554,39.008c24.966-7.479,47.891-19.502,67.875-35.106c4.91-3.901,9.499-7.939,14.067-12.208
			c32.332-30.521,54.751-71.501,61.657-117.852c0.641-4.223,1.125-8.584,1.515-12.941L539.32,398.23z"/>
	</g>
</g>
</svg>
